<?xml version="1.0" encoding="UTF-8" standalone="no"?>
<!DOCTYPE svg PUBLIC "-//W3C//DTD SVG 1.1//EN" "http://www.w3.org/Graphics/SVG/1.1/DTD/svg11.dtd">
<svg width="100%" height="100%" viewBox="0 0 100 100" version="1.1" xmlns="http://www.w3.org/2000/svg" xmlns:xlink="http://www.w3.org/1999/xlink" xml:space="preserve" xmlns:serif="http://www.serif.com/" style="fill-rule:evenodd;clip-rule:evenodd;stroke-linejoin:round;stroke-miterlimit:2;">
    <path d="M100,12.673C100,5.678 94.322,0 87.327,0L12.673,0C5.678,0 0,5.678 0,12.673L0,87.327C0,94.322 5.678,100 12.673,100L87.327,100C94.322,100 100,94.322 100,87.327L100,12.673Z" style="fill:url(#_Linear1);"/>
    <g transform="matrix(3.39217,0,0,3.39217,-84.5664,-6.88151)">
        <g>
            <g transform="matrix(19.5446,0,0,19.5446,28,24)">
                <path d="M0.407,-0.306C0.407,-0.332 0.399,-0.354 0.383,-0.373C0.366,-0.392 0.342,-0.401 0.309,-0.401C0.293,-0.401 0.278,-0.399 0.265,-0.394C0.252,-0.389 0.24,-0.382 0.23,-0.373C0.22,-0.364 0.212,-0.354 0.206,-0.343C0.2,-0.331 0.197,-0.319 0.196,-0.306L0.407,-0.306ZM0.558,-0.243L0.558,-0.223C0.558,-0.216 0.558,-0.21 0.557,-0.204L0.196,-0.204C0.197,-0.19 0.202,-0.177 0.209,-0.166C0.216,-0.155 0.225,-0.145 0.236,-0.137C0.247,-0.128 0.259,-0.122 0.273,-0.117C0.286,-0.112 0.3,-0.11 0.315,-0.11C0.341,-0.11 0.363,-0.115 0.381,-0.125C0.399,-0.134 0.414,-0.147 0.425,-0.162L0.539,-0.09C0.516,-0.056 0.485,-0.03 0.447,-0.012C0.408,0.007 0.364,0.016 0.313,0.016C0.276,0.016 0.24,0.01 0.207,-0.002C0.174,-0.013 0.145,-0.03 0.12,-0.053C0.095,-0.075 0.075,-0.102 0.061,-0.135C0.046,-0.168 0.039,-0.205 0.039,-0.247C0.039,-0.288 0.046,-0.325 0.06,-0.358C0.074,-0.391 0.093,-0.419 0.117,-0.442C0.141,-0.464 0.169,-0.482 0.202,-0.495C0.235,-0.508 0.27,-0.514 0.308,-0.514C0.345,-0.514 0.378,-0.508 0.409,-0.496C0.44,-0.483 0.466,-0.465 0.488,-0.442C0.51,-0.419 0.527,-0.39 0.54,-0.357C0.552,-0.324 0.558,-0.286 0.558,-0.243Z" style="fill:white;fill-rule:nonzero;"/>
            </g>
            <g transform="matrix(19.5446,0,0,19.5446,39.0067,24)">
                <path d="M0.441,0L0.441,-0.065L0.439,-0.065C0.423,-0.04 0.4,-0.02 0.371,-0.007C0.341,0.007 0.309,0.014 0.276,0.014C0.239,0.014 0.205,0.007 0.176,-0.008C0.147,-0.023 0.122,-0.042 0.102,-0.067C0.081,-0.091 0.066,-0.119 0.055,-0.151C0.044,-0.183 0.039,-0.216 0.039,-0.251C0.039,-0.286 0.045,-0.319 0.056,-0.351C0.067,-0.382 0.082,-0.41 0.103,-0.434C0.123,-0.458 0.148,-0.477 0.177,-0.491C0.206,-0.505 0.238,-0.512 0.274,-0.512C0.311,-0.512 0.342,-0.505 0.367,-0.491C0.392,-0.477 0.412,-0.462 0.426,-0.445L0.428,-0.445L0.428,-0.756L0.592,-0.756L0.592,0L0.441,0ZM0.435,-0.25C0.435,-0.266 0.432,-0.282 0.427,-0.297C0.421,-0.312 0.413,-0.326 0.403,-0.338C0.392,-0.35 0.38,-0.36 0.365,-0.367C0.35,-0.374 0.334,-0.378 0.315,-0.378C0.296,-0.378 0.279,-0.374 0.264,-0.367C0.249,-0.36 0.237,-0.35 0.227,-0.339C0.217,-0.327 0.21,-0.313 0.205,-0.298C0.2,-0.283 0.197,-0.267 0.197,-0.251C0.197,-0.235 0.2,-0.219 0.205,-0.204C0.21,-0.188 0.217,-0.174 0.227,-0.162C0.237,-0.15 0.249,-0.14 0.264,-0.133C0.279,-0.126 0.296,-0.122 0.315,-0.122C0.334,-0.122 0.35,-0.126 0.365,-0.133C0.38,-0.14 0.392,-0.15 0.403,-0.162C0.413,-0.174 0.421,-0.188 0.427,-0.203C0.432,-0.218 0.435,-0.234 0.435,-0.25Z" style="fill:white;fill-rule:nonzero;"/>
            </g>
        </g>
    </g>
    <defs>
        <linearGradient id="_Linear1" x1="0" y1="0" x2="1" y2="0" gradientUnits="userSpaceOnUse" gradientTransform="matrix(100,-100,100,100,-1.56125e-15,100)"><stop offset="0" style="stop-color:rgb(99,71,183);stop-opacity:1"/><stop offset="1" style="stop-color:rgb(179,71,164);stop-opacity:1"/></linearGradient>
    </defs>
</svg>
